<svg width="28" height="28" viewBox="0 0 28 28" fill="none" xmlns="http://www.w3.org/2000/svg">
<path d="M20.9289 14.6945C20.918 12.6875 21.8258 11.1727 23.6633 10.057C22.6352 8.58594 21.082 7.77656 19.0312 7.61797C17.0898 7.46484 14.968 8.75 14.1914 8.75C13.3711 8.75 11.4898 7.67266 10.0133 7.67266C6.96172 7.72188 3.71875 10.1062 3.71875 14.957C3.71875 16.3898 3.98125 17.8701 4.50625 19.3977C5.20625 21.4047 7.73281 26.3266 10.3687 26.2445C11.7469 26.2117 12.7203 25.2656 14.5141 25.2656C16.2531 25.2656 17.1555 26.2445 18.6922 26.2445C21.35 26.2062 23.6359 21.7328 24.3031 19.7203C20.7375 18.0414 20.9289 14.7984 20.9289 14.6945ZM17.8336 5.71484C19.3266 3.94297 19.1898 2.32969 19.1461 1.75C17.8281 1.82656 16.3023 2.64688 15.4328 3.65859C14.4758 4.74141 13.9125 6.08125 14.0328 7.59063C15.4602 7.7 16.7617 6.96719 17.8336 5.71484Z" fill="white"/>
</svg>
